<svg xmlns="http://www.w3.org/2000/svg" version="1.1" xmlns:xlink="http://www.w3.org/1999/xlink" xmlns:svgjs="http://svgjs.dev/svgjs" width="1000" height="623" viewBox="0 0 1000 623"><g transform="matrix(1,0,0,1,-0.6060606060606233,0.2522267206477409)"><svg viewBox="0 0 396 247" data-background-color="#ffffff" preserveAspectRatio="xMidYMid meet" height="623" width="1000" xmlns="http://www.w3.org/2000/svg" xmlns:xlink="http://www.w3.org/1999/xlink"><g id="tight-bounds" transform="matrix(1,0,0,1,0.2400000000000091,-0.09999999999999432)"><svg viewBox="0 0 395.52 247.2" height="247.2" width="395.52"><g><svg></svg></g><g><svg viewBox="0 0 395.52 247.2" height="247.2" width="395.52"><g transform="matrix(1,0,0,1,117.56091361867705,47.215199999999996)"><svg viewBox="0 0 160.39817276264588 152.7696" height="152.7696" width="160.39817276264588"><g><svg viewBox="0 0 160.39817276264588 152.7696" height="152.7696" width="160.39817276264588"><g><svg viewBox="0 0 160.39817276264588 152.7696" height="152.7696" width="160.39817276264588"><g><svg viewBox="0 0 160.39817276264588 152.7696" height="152.7696" width="160.39817276264588"><g id="textblocktransform"><svg viewBox="0 0 160.39817276264588 152.7696" height="152.7696" width="160.39817276264588" id="textblock"><g><svg viewBox="0 0 160.39817276264588 152.7696" height="152.7696" width="160.39817276264588"><g transform="matrix(1,0,0,1,0,0)"><svg width="160.39817276264588" viewBox="1.559999942779541 -35.9900016784668 39.529998779296875 37.650001525878906" height="152.7696" data-palette-color="#915eff"><path d="M27.47-33.89L35.08-35.94Q35.21-35.96 35.31-35.97 35.42-35.99 35.52-35.99L35.52-35.99Q35.96-35.99 36.23-35.71 36.5-35.42 36.6-34.72L36.6-34.72Q36.65-34.28 36.76-33.48 36.87-32.69 37-31.73 37.13-30.76 37.29-29.74 37.45-28.71 37.57-27.84 37.7-26.98 37.79-26.35 37.89-25.73 37.92-25.56L37.92-25.56Q38.45-21.24 38.87-18.63 39.28-16.02 39.45-14.77L39.45-14.77 41.09-1.56 40.84-0.81Q40.8-0.63 40.21-0.39 39.62-0.15 38.79 0.13 37.96 0.42 36.99 0.68 36.01 0.95 35.18 1.17 34.35 1.39 33.78 1.53 33.2 1.66 33.18 1.66L33.18 1.66Q32.59 1.66 32.25 0.81 31.91-0.05 31.69-1.37 31.47-2.69 31.34-4.25 31.2-5.81 31.03-7.25L31.03-7.25Q30.88-8.45 30.76-9.67 30.64-10.89 30.49-12.16L30.49-12.16 29.54-19.29 20.48-2.71Q20.07-2.12 19.65-1.87 19.24-1.61 18.87-1.61L18.87-1.61Q18.33-1.61 18.03-1.93 17.72-2.25 17.6-2.71L17.6-2.71Q17.14-4.25 16.81-5.31 16.48-6.37 16.2-7.25 15.92-8.13 15.67-8.96 15.43-9.79 15.12-10.88 14.82-11.96 14.44-13.44 14.06-14.92 13.53-17.07L13.53-17.07 12.77-13.55 9.25 1.37Q9.18 1.66 8.64 1.66L8.64 1.66Q8.13 1.66 7.24 1.46 6.35 1.27 5.38 0.99 4.42 0.71 3.5 0.4 2.59 0.1 2.05-0.15L2.05-0.15Q1.93-0.2 1.75-0.38 1.56-0.56 1.56-0.95L1.56-0.95Q1.56-1.05 1.64-1.37 1.71-1.68 1.82-2.11 1.93-2.54 2.06-2.98 2.2-3.42 2.32-3.76L2.32-3.76Q2.64-4.59 2.89-5.71 3.15-6.84 3.37-7.98 3.59-9.13 3.77-10.18 3.96-11.23 4.13-11.94L4.13-11.94 7.13-25.95 8.03-29.91Q8.2-30.66 8.36-31.38 8.52-32.1 8.64-32.69 8.76-33.28 8.84-33.64 8.91-34.01 8.91-34.06L8.91-34.06 15.01-35.94Q15.36-35.94 15.61-35.88 15.87-35.82 15.94-35.47L15.94-35.47 20.8-19.85 27.47-33.89Z" opacity="1" transform="matrix(1,0,0,1,0,0)" fill="#915eff" class="undefined-text-0" data-fill-palette-color="primary" id="text-0"></path></svg></g></svg></g></svg></g></svg></g></svg></g></svg></g></svg></g><g><path d="M0 123.6c0-68.262 55.338-123.6 123.6-123.6 30.402 0 58.24 10.976 79.768 29.183l-11.147 0c-19.26-14.022-42.974-22.294-68.621-22.295-64.458 0-116.712 52.254-116.712 116.712 0 64.458 52.254 116.712 116.712 116.712 25.647 0 49.361-8.272 68.621-22.295l11.147 0c-21.528 18.206-49.366 29.183-79.768 29.183-68.262 0-123.6-55.338-123.6-123.6z" fill="#915eff" stroke="transparent" data-fill-palette-color="tertiary"></path></g></svg></g><defs></defs></svg><rect width="395.52" height="247.2" fill="none" stroke="none" visibility="hidden"></rect></g></svg></g></svg>